<svg width="640" height="220" viewBox="0 0 640 220" fill="none" xmlns="http://www.w3.org/2000/svg" role="img" aria-labelledby="title desc">
  <title id="title">OrdoStack logo</title>
  <desc id="desc">OrdoStack wordmark with a balanced mobile task mark.</desc>
  <rect width="640" height="220" fill="#F5F5F5"/>
  <g transform="translate(42 26)">
    <path d="M72 0V31" stroke="#6F6964" stroke-width="4" stroke-linecap="round"/>
    <circle cx="72" cy="36" r="6" fill="#F5F5F5" stroke="#6F6964" stroke-width="4"/>
    <path d="M16 73C39 52 104 48 136 67" stroke="#6F6964" stroke-width="4" stroke-linecap="round"/>
    <circle cx="19" cy="71" r="5" fill="#F5F5F5" stroke="#6F6964" stroke-width="4"/>
    <circle cx="134" cy="66" r="5" fill="#F5F5F5" stroke="#6F6964" stroke-width="4"/>
    <path d="M72 43V96" stroke="#6F6964" stroke-width="4" stroke-linecap="round"/>
    <circle cx="72" cy="99" r="5" fill="#F5F5F5" stroke="#6F6964" stroke-width="4"/>
    <path d="M3 86C-6 67 4 47 36 42C48 59 39 81 3 86Z" fill="#B93A2F"/>
    <path d="M138 80C128 62 137 42 169 37C182 55 173 76 138 80Z" fill="#A39E9A"/>
    <path d="M72 126C55 113 53 92 77 75C97 89 95 114 72 126Z" fill="#4C6B58"/>
  </g>
  <text x="244" y="121" fill="#111111" font-family="Avenir Next, Segoe UI, Arial, sans-serif" font-size="48" font-weight="600" letter-spacing="12">ORDOSTACK</text>
  <text x="248" y="151" fill="#6F6964" font-family="Inter, Helvetica Neue, Arial, sans-serif" font-size="15" letter-spacing="4">BALANCED DAILY ORCHESTRATION</text>
</svg>
