<svg width="256" height="256" viewBox="0 0 256 256" fill="none" xmlns="http://www.w3.org/2000/svg" role="img" aria-labelledby="title desc">
  <title id="title">OrdoStack dark icon</title>
  <desc id="desc">A dark sidebar icon showing balanced task leaves.</desc>
  <rect width="256" height="256" rx="32" fill="#111111"/>
  <path d="M128 35V73" stroke="#DBD4CD" stroke-width="5" stroke-linecap="round"/>
  <circle cx="128" cy="79" r="8" fill="#111111" stroke="#DBD4CD" stroke-width="5"/>
  <path d="M62 120C88 96 166 91 204 113" stroke="#DBD4CD" stroke-width="5" stroke-linecap="round"/>
  <circle cx="66" cy="118" r="7" fill="#111111" stroke="#DBD4CD" stroke-width="5"/>
  <circle cx="202" cy="112" r="7" fill="#111111" stroke="#DBD4CD" stroke-width="5"/>
  <path d="M128 87V151" stroke="#DBD4CD" stroke-width="5" stroke-linecap="round"/>
  <circle cx="128" cy="154" r="7" fill="#111111" stroke="#DBD4CD" stroke-width="5"/>
  <path d="M48 134C37 112 48 88 86 82C101 103 91 129 48 134Z" fill="#111111" stroke="#DBD4CD" stroke-width="2"/>
  <path d="M207 127C195 106 205 82 244 76C259 97 249 123 207 127Z" fill="#A39E9A"/>
  <path d="M127 185C107 170 105 145 133 124C157 141 154 171 127 185Z" fill="#E8E3DC"/>
</svg>
